<svg width="100" height="100" viewBox="0 0 100 100" fill="none" xmlns="http://www.w3.org/2000/svg">
<rect width="100" height="100" rx="23" fill="#222B34"/>
<path d="M22.1094 56.2607V47.4082C25.0033 44.2637 28.3757 42.6914 32.2266 42.6914C33.6621 42.6914 34.9837 42.8395 36.1914 43.1357C37.3991 43.4092 39.5638 44.1839 42.6855 45.46C45.8301 46.7132 47.9606 47.3398 49.0771 47.3398C50.3532 47.3398 51.8229 46.9525 53.4863 46.1777C55.1725 45.3802 56.8132 44.127 58.4082 42.418V51.6465C57.36 52.7402 55.8903 53.7656 53.999 54.7227C52.1305 55.6797 50.1937 56.1582 48.1885 56.1582C47.0492 56.1582 45.9326 56.0215 44.8389 55.748C43.7679 55.4746 42.0589 54.8252 39.7119 53.7998C36.2028 52.2731 33.4456 51.5098 31.4404 51.5098C28.2503 51.5098 25.14 53.0934 22.1094 56.2607Z" fill="white"/>
<path d="M60.5957 74.8545L73.0029 23.0381H80.2148L67.6709 74.8545H60.5957Z" fill="#00A853"/>
</svg>
